<?xml version="1.0" encoding="UTF-8" standalone="no"?>
<!-- Created with Inkscape (http://www.inkscape.org/) -->

<svg
   width="23.732994mm"
   height="21.702976mm"
   viewBox="0 0 23.732994 21.702976"
   version="1.1"
   id="svg1"
   inkscape:version="1.4.2 (f4327f4, 2025-05-13)"
   sodipodi:docname="break.svg"
   xmlns:inkscape="http://www.inkscape.org/namespaces/inkscape"
   xmlns:sodipodi="http://sodipodi.sourceforge.net/DTD/sodipodi-0.dtd"
   xmlns="http://www.w3.org/2000/svg"
   xmlns:svg="http://www.w3.org/2000/svg">
  <sodipodi:namedview
     id="namedview1"
     pagecolor="#ffffff"
     bordercolor="#000000"
     borderopacity="0.25"
     inkscape:showpageshadow="2"
     inkscape:pageopacity="0.0"
     inkscape:pagecheckerboard="0"
     inkscape:deskcolor="#d1d1d1"
     inkscape:document-units="mm"
     inkscape:zoom="11.01807"
     inkscape:cx="48.60198"
     inkscape:cy="62.30674"
     inkscape:window-width="2131"
     inkscape:window-height="1701"
     inkscape:window-x="4526"
     inkscape:window-y="0"
     inkscape:window-maximized="0"
     inkscape:current-layer="g16" />
  <defs
     id="defs1" />
  <g
     inkscape:label="Layer 1"
     inkscape:groupmode="layer"
     id="layer1"
     transform="translate(-93.133333,-137.58333)">
    <g
       id="g16"
       transform="matrix(0.26458333,0,0,-0.26458333,91.770801,161.66359)"
       style="fill:#none;fill-opacity:1">
      <path
         fill-rule="evenodd"
         clip-rule="evenodd"
         d="m 34.127,35.149 c 0,-3.318 -2.706,-6.024 -6.024,-6.024 -3.318,0 -6.024,2.706 -6.024,6.024 0,3.317 2.706,6.024 6.024,6.024 3.318,10e-4 6.024,-2.706 6.024,-6.024 z"
         id="path1"
         style="fill:none;fill-opacity:1" />
      <path
         fill-rule="evenodd"
         clip-rule="evenodd"
         d="m 36.698,35.232 c 0,3.317 2.706,6.024 6.024,6.024 3.318,0 6.024,-2.707 6.024,-6.024 0,-3.318 -2.706,-6.024 -6.024,-6.024 -3.318,0 -6.024,2.706 -6.024,6.024 z"
         id="path2"
         style="fill:none;fill-opacity:1" />
      <path
         fill-rule="evenodd"
         clip-rule="evenodd"
         d="m 51.316,35.176 c 0,3.318 2.706,6.024 6.024,6.024 3.318,0 6.024,-2.706 6.024,-6.024 0,-3.318 -2.706,-6.024 -6.024,-6.024 -3.318,0 -6.024,2.706 -6.024,6.024 z"
         id="path3"
         style="fill:none;fill-opacity:1" />
      <path
         fill-rule="evenodd"
         clip-rule="evenodd"
         d="m 70.971,29.141 c -3.32,0 -6.025,2.707 -6.025,6.024 0,3.317 2.705,6.024 6.025,6.024 3.316,0 6.023,-2.706 6.023,-6.024 0,-3.318 -2.707,-6.024 -6.023,-6.024 z"
         id="path4"
         style="fill:none;fill-opacity:1" />
      <path
         fill-rule="evenodd"
         clip-rule="evenodd"
         d="m 41.728,48.241 c 0,-3.318 -2.707,-6.024 -6.024,-6.024 -3.318,0 -6.024,2.706 -6.024,6.024 0,3.317 2.706,6.023 6.024,6.023 3.317,10e-4 6.024,-2.705 6.024,-6.023 z"
         id="path5"
         style="fill:none;fill-opacity:1" />
      <path
         fill-rule="evenodd"
         clip-rule="evenodd"
         d="m 44.464,48.224 c 0,3.319 2.706,6.024 6.024,6.024 3.318,0 6.024,-2.705 6.024,-6.024 0,-3.317 -2.706,-6.023 -6.024,-6.023 -3.318,0 -6.024,2.706 -6.024,6.023 z"
         id="path6"
         style="fill:none;fill-opacity:1" />
      <path
         fill-rule="evenodd"
         clip-rule="evenodd"
         d="m 64.611,42.145 c -3.318,0 -6.024,2.706 -6.024,6.024 0,3.318 2.706,6.024 6.024,6.024 3.318,0 6.025,-2.706 6.025,-6.024 0.001,-3.318 -2.706,-6.024 -6.025,-6.024 z"
         id="path7"
         style="fill:none;fill-opacity:1" />
      <path
         fill-rule="evenodd"
         clip-rule="evenodd"
         d="m 57.343,55.25 c -3.318,0 -6.024,2.706 -6.024,6.024 0,3.318 2.706,6.024 6.024,6.024 3.317,0 6.024,-2.706 6.024,-6.024 0,-3.318 -2.707,-6.024 -6.024,-6.024 z"
         id="path8"
         style="fill:none;fill-opacity:1" />
      <path
         fill-rule="evenodd"
         clip-rule="evenodd"
         d="m 48.914,61.233 c 0,-3.318 -2.707,-6.024 -6.024,-6.024 -3.318,0 -6.024,2.706 -6.024,6.024 0,3.317 2.706,6.024 6.024,6.024 3.317,10e-4 6.024,-2.706 6.024,-6.024 z"
         id="path9"
         style="fill:none;fill-opacity:1" />
      <path
         fill-rule="evenodd"
         clip-rule="evenodd"
         d="m 93.217,14.854 -0.32,-0.541 -0.016,0.007 C 91.848,12.734 90.512,11.464 88.902,10.54 87.107,9.508 85.123,8.985 83.004,8.985 H 16.997 c -2.118,0 -4.104,0.523 -5.9,1.555 -1.608,0.924 -2.944,2.194 -3.979,3.78 l -0.02,-0.01 -0.316,0.543 c -1.069,1.832 -1.618,3.812 -1.632,5.886 -0.014,2.048 0.511,4.026 1.56,5.882 l 32.917,58.22 0.087,0.165 c 1.048,1.853 2.543,3.381 4.322,4.419 1.778,1.038 3.841,1.587 5.964,1.587 2.152,0 4.16,-0.534 5.964,-1.587 1.778,-1.038 3.272,-2.566 4.321,-4.419 L 93.29,26.621 c 1.047,-1.856 1.572,-3.835 1.559,-5.882 -0.013,-2.072 -0.562,-4.052 -1.632,-5.885 z m -38.621,66.122 -0.004,-0.003 -0.345,0.609 c -0.451,0.798 -1.047,1.416 -1.767,1.837 -0.724,0.421 -1.557,0.635 -2.48,0.635 -0.923,0 -1.757,-0.214 -2.479,-0.635 -0.722,-0.421 -1.316,-1.039 -1.767,-1.837 L 45.405,80.976 12.75,23.22 c -0.445,-0.789 -0.668,-1.612 -0.663,-2.449 0.005,-0.809 0.243,-1.621 0.704,-2.412 l 0.067,-0.124 c 0.446,-0.727 1.015,-1.292 1.693,-1.682 0.703,-0.404 1.526,-0.608 2.445,-0.608 h 66.007 c 0.92,0 1.742,0.204 2.445,0.608 0.666,0.382 1.227,0.935 1.668,1.644 l 0.092,0.163 c 0.463,0.79 0.699,1.602 0.705,2.412 0.004,0.836 -0.219,1.66 -0.664,2.448 z M 74.762,14.605 H 25.23 L 27.7,10.326 H 72.29 Z M 15.687,31.135 40.536,75.087 H 35.648 L 13.218,35.41 Z m 43.778,43.952 24.844,-43.944 2.469,4.274 -22.428,39.67 z"
         id="path10"
         style="fill:none;fill-opacity:1" />
      <path
         fill-rule="evenodd"
         clip-rule="evenodd"
         d="m 49.992,67.557 c -3.318,0 -6.024,2.706 -6.024,6.024 0,3.318 2.706,6.024 6.024,6.024 3.317,0 6.024,-2.706 6.024,-6.024 0,-3.318 -2.706,-6.024 -6.024,-6.024 z"
         id="path11"
         style="fill:none;fill-opacity:1" />
      <path
         fill-rule="evenodd"
         clip-rule="evenodd"
         d="m 27.767,23.112 c 0,-3.318 -2.706,-6.024 -6.024,-6.024 -3.318,0 -6.024,2.707 -6.024,6.024 0,3.318 2.706,6.024 6.024,6.024 3.318,0 6.024,-2.705 6.024,-6.024 z"
         id="path12"
         style="fill:none;fill-opacity:1" />
      <path
         fill-rule="evenodd"
         clip-rule="evenodd"
         d="m 35.784,29.137 c 3.318,0 6.024,-2.706 6.024,-6.024 0,-3.318 -2.706,-6.024 -6.024,-6.024 -3.318,0 -6.024,2.707 -6.024,6.024 -0.001,3.318 2.705,6.024 6.024,6.024 z"
         id="path13"
         style="fill:none;fill-opacity:1" />
      <path
         fill-rule="evenodd"
         clip-rule="evenodd"
         d="m 50.32,29.125 c 3.317,0 6.024,-2.706 6.024,-6.024 0,-3.318 -2.707,-6.024 -6.024,-6.024 -3.318,0 -6.024,2.706 -6.024,6.024 0,3.318 2.706,6.024 6.024,6.024 z"
         id="path14"
         style="fill:none;fill-opacity:1" />
      <path
         fill-rule="evenodd"
         clip-rule="evenodd"
         d="m 64.113,29.114 c 3.318,0 6.025,-2.706 6.025,-6.024 0,-3.318 -2.707,-6.024 -6.025,-6.024 -3.317,0 -6.023,2.706 -6.023,6.024 0,3.318 2.706,6.024 6.023,6.024 z"
         id="path15"
         style="fill:none;fill-opacity:1" />
      <path
         fill-rule="evenodd"
         clip-rule="evenodd"
         d="m 78.32,17.077 c -3.318,0 -6.023,2.706 -6.023,6.024 0,3.318 2.705,6.024 6.023,6.024 3.318,0 6.023,-2.706 6.023,-6.024 0,-3.318 -2.704,-6.024 -6.023,-6.024 z"
         id="path16"
         style="fill:none;fill-opacity:1" />
    </g>
  </g>
</svg>
