<?xml version="1.0" encoding="UTF-8"?>
<!-- Created with Inkscape (http://www.inkscape.org/) -->
<svg width="16.407mm" height="13.672mm" version="1.1" viewBox="0 0 16.407 13.672" xmlns="http://www.w3.org/2000/svg">
 <g transform="translate(-96.573 -141.55)">
  <g transform="matrix(.26458 0 0 .26458 96.31 139.92)">
   <path d="m55.546 57.835h-47.091c-3.234 0-5.644-1.133-6.785-3.189s-0.829-4.7 0.88-7.444l22.929-36.812c1.699-2.726 4.015-4.227 6.521-4.227s4.822 1.501 6.519 4.227l22.931 36.812c1.709 2.742 2.021 5.386 0.88 7.442-1.142 2.058-3.551 3.191-6.784 3.191zm-23.546-49.672c-1.791 0-3.504 1.167-4.824 3.285l-22.928 36.811c-1.308 2.1-1.603 4.023-0.829 5.416s2.562 2.16 5.037 2.16h47.091c2.474 0 4.262-0.768 5.036-2.161 0.772-1.393 0.479-3.315-0.829-5.414l-22.932-36.812c-1.319-2.118-3.031-3.285-4.822-3.285z"/>
   <path d="m14.825 57.837c-5.287 0-9.588-4.301-9.588-9.588s4.301-9.588 9.588-9.588 9.588 4.301 9.588 9.588-4.301 9.588-9.588 9.588zm0-17.176c-4.184 0-7.588 3.404-7.588 7.588s3.404 7.588 7.588 7.588 7.588-3.404 7.588-7.588-3.404-7.588-7.588-7.588z"/>
   <path d="m32 57.837c-5.287 0-9.588-4.301-9.588-9.588s4.301-9.588 9.588-9.588 9.588 4.301 9.588 9.588-4.301 9.588-9.588 9.588zm0-17.176c-4.184 0-7.588 3.404-7.588 7.588s3.404 7.588 7.588 7.588 7.588-3.404 7.588-7.588-3.404-7.588-7.588-7.588z"/>
   <path d="m49.175 57.836c-5.286 0-9.587-4.301-9.587-9.587s4.301-9.587 9.587-9.587 9.587 4.301 9.587 9.587-4.301 9.587-9.587 9.587zm0-17.174c-4.184 0-7.587 3.403-7.587 7.587s3.403 7.587 7.587 7.587 7.587-3.403 7.587-7.587-3.404-7.587-7.587-7.587z"/>
   <path d="m32.001 27.922c-5.287 0-9.588-4.302-9.588-9.589 0-5.286 4.301-9.586 9.588-9.586 5.285 0 9.585 4.3 9.585 9.586 0 5.287-4.3 9.589-9.585 9.589zm0-17.175c-4.184 0-7.588 3.403-7.588 7.586 0 4.185 3.404 7.589 7.588 7.589 4.183 0 7.585-3.404 7.585-7.589 0-4.183-3.402-7.586-7.585-7.586z"/>
   <path d="m23.413 42.861c-5.287 0-9.588-4.301-9.588-9.588s4.301-9.587 9.588-9.587 9.588 4.301 9.588 9.587c0 5.288-4.301 9.588-9.588 9.588zm0-17.175c-4.184 0-7.588 3.404-7.588 7.587s3.404 7.588 7.588 7.588 7.588-3.404 7.588-7.588-3.404-7.587-7.588-7.587z"/>
   <path d="m40.588 42.861c-5.286 0-9.587-4.301-9.587-9.588 0-5.286 4.301-9.586 9.587-9.586s9.587 4.3 9.587 9.586c0 5.288-4.301 9.588-9.587 9.588zm0-17.174c-4.184 0-7.587 3.403-7.587 7.586 0 4.184 3.403 7.588 7.587 7.588s7.587-3.404 7.587-7.588c0-4.183-3.404-7.586-7.587-7.586z"/>
  </g>
 </g>
</svg>
