<?xml version="1.0" encoding="UTF-8" standalone="no"?>
<!-- Created with Inkscape (http://www.inkscape.org/) -->

<svg
   version="1.1"
   id="svg20901"
   width="2078.7092"
   height="362.28329"
   viewBox="0 0 2078.7092 362.28329"
   xmlns="http://www.w3.org/2000/svg"
   xmlns:svg="http://www.w3.org/2000/svg">
  <defs
     id="defs20905">
    <clipPath
       clipPathUnits="userSpaceOnUse"
       id="clipPath7688">
      <path
         d="M 0,70.667 H 279.333 V 0 H 0 Z"
         id="path7686" />
    </clipPath>
    <clipPath
       clipPathUnits="userSpaceOnUse"
       id="clipPath7688-6">
      <path
         d="M 0,70.667 H 279.333 V 0 H 0 Z"
         id="path7686-5" />
    </clipPath>
  </defs>
  <g
     id="g7776"
     transform="matrix(8.0797551,0,0,-8.0797551,166.41872,110.17635)" />
  <g
     id="g13287"
     transform="translate(-23.52677,44.439387)">
    <g
       id="g7690"
       transform="matrix(8.0797551,0,0,-8.0797551,568.84964,152.06995)"
       style="fill:#ffffff">
      <path
         d="m 0,0 c 1.371,1.134 2.057,2.735 2.057,4.805 0,2.118 -0.686,3.744 -2.057,4.879 -1.371,1.134 -3.353,1.701 -5.945,1.701 h -6.954 V -1.701 h 6.954 C -3.353,-1.701 -1.371,-1.135 0,0 M 1.982,11.385 C 3.876,9.79 4.823,7.596 4.823,4.805 4.823,2.013 3.876,-0.175 1.982,-1.757 0.087,-3.34 -2.53,-4.131 -5.87,-4.131 h -7.029 v -8.264 h -2.767 v 26.173 h 9.796 c 3.34,0 5.957,-0.798 7.852,-2.393"
         style="fill:#ffffff;fill-opacity:1;fill-rule:nonzero;stroke:none"
         id="path7692" />
    </g>
    <g
       id="g7694"
       transform="matrix(8.0797551,0,0,-8.0797551,796.92901,222.75973)"
       style="fill:#ffffff">
      <path
         d="m 0,0 c 1.669,0.935 2.978,2.23 3.926,3.888 0.947,1.658 1.42,3.508 1.42,5.553 0,2.043 -0.473,3.894 -1.42,5.552 C 2.978,16.65 1.669,17.947 0,18.881 c -1.67,0.935 -3.54,1.403 -5.608,1.403 -2.07,0 -3.945,-0.468 -5.628,-1.403 -1.682,-0.934 -3.004,-2.231 -3.963,-3.888 -0.96,-1.658 -1.439,-3.509 -1.439,-5.552 0,-2.045 0.479,-3.895 1.439,-5.553 0.959,-1.658 2.281,-2.953 3.963,-3.888 1.683,-0.935 3.558,-1.402 5.628,-1.402 2.068,0 3.938,0.467 5.608,1.402 m -12.656,-2.131 c -2.107,1.159 -3.752,2.748 -4.936,4.767 -1.184,2.019 -1.776,4.287 -1.776,6.805 0,2.517 0.592,4.786 1.776,6.805 1.184,2.019 2.829,3.608 4.936,4.767 2.106,1.159 4.455,1.738 7.048,1.738 2.591,0 4.928,-0.573 7.01,-1.72 2.081,-1.147 3.72,-2.736 4.916,-4.767 C 7.515,14.232 8.113,11.958 8.113,9.441 8.113,6.923 7.515,4.648 6.318,2.617 5.122,0.585 3.483,-1.004 1.402,-2.15 c -2.082,-1.147 -4.419,-1.72 -7.01,-1.72 -2.593,0 -4.942,0.579 -7.048,1.739"
         style="fill:#ffffff;fill-opacity:1;fill-rule:nonzero;stroke:none"
         id="path7696" />
    </g>
    <g
       id="g7698"
       transform="matrix(8.0797551,0,0,-8.0797551,1050.3845,222.75973)"
       style="fill:#ffffff">
      <path
         d="m 0,0 c 1.669,0.935 2.978,2.23 3.926,3.888 0.947,1.658 1.42,3.508 1.42,5.553 0,2.043 -0.473,3.894 -1.42,5.552 C 2.978,16.65 1.669,17.947 0,18.881 c -1.67,0.935 -3.54,1.403 -5.608,1.403 -2.07,0 -3.945,-0.468 -5.628,-1.403 -1.682,-0.934 -3.004,-2.231 -3.963,-3.888 -0.96,-1.658 -1.439,-3.509 -1.439,-5.552 0,-2.045 0.479,-3.895 1.439,-5.553 0.959,-1.658 2.281,-2.953 3.963,-3.888 1.683,-0.935 3.558,-1.402 5.628,-1.402 2.068,0 3.938,0.467 5.608,1.402 m -12.656,-2.131 c -2.107,1.159 -3.752,2.748 -4.936,4.767 -1.184,2.019 -1.776,4.287 -1.776,6.805 0,2.517 0.592,4.786 1.776,6.805 1.184,2.019 2.829,3.608 4.936,4.767 2.106,1.159 4.455,1.738 7.048,1.738 2.591,0 4.928,-0.573 7.01,-1.72 2.081,-1.147 3.72,-2.736 4.916,-4.767 C 7.515,14.232 8.113,11.958 8.113,9.441 8.113,6.923 7.515,4.648 6.318,2.617 5.122,0.585 3.483,-1.004 1.402,-2.15 c -2.082,-1.147 -4.419,-1.72 -7.01,-1.72 -2.593,0 -4.942,0.579 -7.048,1.739"
         style="fill:#ffffff;fill-opacity:1;fill-rule:nonzero;stroke:none"
         id="path7700" />
    </g>
    <g
       id="g7702"
       transform="matrix(8.0797551,0,0,-8.0797551,1166.0849,40.748703)"
       style="fill:#ffffff">
      <path
         d="m 0,0 h 2.767 v -23.779 h 14.656 v -2.393 H 0 Z"
         style="fill:#ffffff;fill-opacity:1;fill-rule:nonzero;stroke:none"
         id="path7704" />
    </g>
    <g
       id="g7706"
       transform="matrix(8.0797551,0,0,-8.0797551,1587.3488,311.62572)"
       style="fill:#ffffff">
      <path
         d="m 0,0 c 0.249,0.166 0.373,0.425 0.373,0.777 0,0.679 -0.492,1.018 -1.477,1.018 h -1.919 v -2.044 h 1.919 C -0.616,-0.249 -0.249,-0.166 0,0 M -3.023,4.244 V 2.27 h 1.733 c 0.44,0 0.779,0.084 1.019,0.252 0.238,0.168 0.357,0.414 0.357,0.735 0,0.321 -0.119,0.566 -0.357,0.734 C -0.511,4.16 -0.85,4.244 -1.29,4.244 Z M 0.657,1.621 C 0.852,1.39 0.948,1.093 0.948,0.731 0.948,0.264 0.776,-0.094 0.432,-0.346 0.087,-0.597 -0.422,-0.723 -1.096,-0.723 h -2.503 v 5.441 h 2.348 c 0.606,0 1.076,-0.122 1.41,-0.365 C 0.493,4.109 0.661,3.764 0.661,3.319 0.661,3.018 0.587,2.763 0.439,2.553 0.292,2.343 0.088,2.187 -0.171,2.083 0.187,2.005 0.463,1.851 0.657,1.621"
         style="fill:#ffffff;fill-opacity:1;fill-rule:nonzero;stroke:none"
         id="path7708" />
    </g>
    <g
       id="g7710"
       transform="matrix(8.0797551,0,0,-8.0797551,1619.7462,302.26775)"
       style="fill:#ffffff">
      <path
         d="M 0,0 V -1.881 H -0.567 V 0 l -2.176,3.56 h 0.614 L -0.264,0.505 1.602,3.56 h 0.575 z"
         style="fill:#ffffff;fill-opacity:1;fill-rule:nonzero;stroke:none"
         id="path7712" />
    </g>
    <g
       id="g7714"
       transform="matrix(8.0797551,0,0,-8.0797551,1690.0813,311.62572)"
       style="fill:#ffffff">
      <path
         d="m 0,0 c 0.249,0.166 0.373,0.425 0.373,0.777 0,0.679 -0.492,1.018 -1.477,1.018 h -1.919 v -2.044 h 1.919 C -0.616,-0.249 -0.249,-0.166 0,0 M -3.023,4.244 V 2.27 h 1.733 c 0.44,0 0.779,0.084 1.019,0.252 0.238,0.168 0.357,0.414 0.357,0.735 0,0.321 -0.119,0.566 -0.357,0.734 C -0.511,4.16 -0.85,4.244 -1.29,4.244 Z M 0.657,1.621 C 0.852,1.39 0.948,1.093 0.948,0.731 0.948,0.264 0.776,-0.094 0.432,-0.346 0.087,-0.597 -0.422,-0.723 -1.096,-0.723 h -2.503 v 5.441 h 2.348 c 0.606,0 1.076,-0.122 1.41,-0.365 C 0.493,4.109 0.661,3.764 0.661,3.319 0.661,3.018 0.587,2.763 0.439,2.553 0.292,2.343 0.088,2.187 -0.171,2.083 0.187,2.005 0.463,1.851 0.657,1.621"
         style="fill:#ffffff;fill-opacity:1;fill-rule:nonzero;stroke:none"
         id="path7716" />
    </g>
    <g
       id="g7718"
       transform="matrix(8.0797551,0,0,-8.0797551,1734.6702,296.67737)"
       style="fill:#ffffff">
      <path
         d="M 0,0 C 0.285,0.238 0.428,0.572 0.428,1.002 0.428,1.443 0.285,1.781 0,2.017 -0.285,2.252 -0.697,2.37 -1.235,2.37 h -1.447 v -2.728 h 1.447 c 0.538,0 0.95,0.119 1.235,0.358 m 0.458,-2.573 -1.243,1.749 c -0.14,-0.015 -0.285,-0.023 -0.436,-0.023 h -1.461 v -1.726 h -0.575 v 5.441 h 2.036 C -0.526,2.868 0.018,2.702 0.412,2.37 0.806,2.039 1.003,1.583 1.003,1.002 1.003,0.578 0.895,0.219 0.68,-0.074 0.465,-0.367 0.158,-0.578 -0.241,-0.708 l 1.329,-1.865 z"
         style="fill:#ffffff;fill-opacity:1;fill-rule:nonzero;stroke:none"
         id="path7720" />
    </g>
    <g
       id="g7722"
       transform="matrix(8.0797551,0,0,-8.0797551,1784.8447,313.44448)"
       style="fill:#ffffff">
      <path
         d="m 0,0 v -0.498 h -3.848 v 5.441 h 3.731 V 4.445 H -3.272 V 2.51 h 2.813 V 2.021 H -3.272 V 0 Z"
         style="fill:#ffffff;fill-opacity:1;fill-rule:nonzero;stroke:none"
         id="path7724" />
    </g>
    <g
       id="g7726"
       transform="matrix(8.0797551,0,0,-8.0797551,1795.7653,273.50706)"
       style="fill:#ffffff">
      <path
         d="M 0,0 H 0.575 V -4.943 H 3.622 V -5.44 H 0 Z"
         style="fill:#ffffff;fill-opacity:1;fill-rule:nonzero;stroke:none"
         id="path7728" />
    </g>
    <g
       id="g7730"
       transform="matrix(8.0797551,0,0,-8.0797551,1832.7552,273.50706)"
       style="fill:#ffffff">
      <path
         d="M 0,0 H 0.575 V -4.943 H 3.622 V -5.44 H 0 Z"
         style="fill:#ffffff;fill-opacity:1;fill-rule:nonzero;stroke:none"
         id="path7732" />
    </g>
    <g
       id="g7734"
       transform="matrix(8.0797551,0,0,-8.0797551,1895.7361,301.95183)"
       style="fill:#ffffff">
      <path
         d="M 0,0 -1.306,2.922 -2.611,0 Z M 0.21,-0.466 H -2.821 L -3.474,-1.92 h -0.598 l 2.487,5.441 h 0.567 L 1.469,-1.92 H 0.863 Z"
         style="fill:#ffffff;fill-opacity:1;fill-rule:nonzero;stroke:none"
         id="path7736" />
    </g>
    <g
       id="g7738"
       transform="matrix(8.0797551,0,0,-8.0797551,1939.8912,277.52754)"
       style="fill:#ffffff">
      <path
         d="M 0,0 H -1.912 V 0.498 H 2.486 V 0 H 0.575 V -4.943 H 0 Z"
         style="fill:#ffffff;fill-opacity:1;fill-rule:nonzero;stroke:none"
         id="path7740" />
    </g>
    <g
       id="g7742"
       transform="matrix(8.0797551,0,0,-8.0797551,1998.4775,313.44448)"
       style="fill:#ffffff">
      <path
         d="m 0,0 v -0.498 h -3.848 v 5.441 h 3.731 V 4.445 H -3.272 V 2.51 h 2.813 V 2.021 H -3.272 V 0 Z"
         style="fill:#ffffff;fill-opacity:1;fill-rule:nonzero;stroke:none"
         id="path7744" />
    </g>
    <g
       id="g7746"
       transform="matrix(8.0797551,0,0,-8.0797551,2016.4598,314.95135)"
       style="fill:#ffffff">
      <path
         d="m 0,0 c -0.433,0.238 -0.771,0.568 -1.018,0.991 -0.246,0.422 -0.369,0.895 -0.369,1.418 0,0.524 0.123,0.996 0.369,1.419 0.247,0.422 0.587,0.752 1.022,0.99 0.435,0.239 0.923,0.358 1.462,0.358 0.404,0 0.777,-0.067 1.119,-0.202 C 2.927,4.839 3.217,4.642 3.455,4.383 L 3.09,4.018 C 2.665,4.448 2.129,4.663 1.481,4.663 1.051,4.663 0.66,4.564 0.308,4.368 -0.045,4.171 -0.321,3.901 -0.521,3.56 -0.72,3.217 -0.819,2.834 -0.819,2.409 c 0,-0.425 0.099,-0.808 0.298,-1.15 0.2,-0.342 0.476,-0.612 0.829,-0.808 C 0.66,0.253 1.051,0.155 1.481,0.155 2.134,0.155 2.67,0.373 3.09,0.808 L 3.455,0.443 C 3.217,0.184 2.926,-0.015 2.581,-0.152 2.236,-0.289 1.862,-0.358 1.458,-0.358 0.919,-0.358 0.433,-0.239 0,0"
         style="fill:#ffffff;fill-opacity:1;fill-rule:nonzero;stroke:none"
         id="path7748" />
    </g>
    <g
       id="g7750"
       transform="matrix(8.0797551,0,0,-8.0797551,2091.0311,273.50706)"
       style="fill:#ffffff">
      <path
         d="m 0,0 v -5.44 h -0.567 v 2.51 H -3.972 V -5.44 H -4.547 V 0 h 0.575 v -2.425 h 3.405 V 0 Z"
         style="fill:#ffffff;fill-opacity:1;fill-rule:nonzero;stroke:none"
         id="path7752" />
    </g>
    <g
       id="g7754"
       transform="matrix(8.0797551,0,0,-8.0797551,1424.3769,243.68145)"
       style="fill:#ffffff">
      <path
         d="M 0,0 C -1.971,0.574 -3.515,1.306 -4.631,2.192 L -2.66,5.937 C -1.512,5.115 -0.115,4.458 1.527,3.966 3.169,3.473 4.828,3.227 6.502,3.227 c 4.138,0 6.207,1.182 6.207,3.547 0,0.788 -0.279,1.412 -0.837,1.872 -0.559,0.459 -1.256,0.796 -2.094,1.01 -0.837,0.213 -2.028,0.451 -3.571,0.714 -2.103,0.328 -3.818,0.706 -5.148,1.133 -1.33,0.427 -2.472,1.15 -3.424,2.168 -0.953,1.017 -1.429,2.446 -1.429,4.286 0,2.365 0.985,4.262 2.956,5.69 1.971,1.429 4.614,2.143 7.931,2.143 1.74,0 3.482,-0.214 5.223,-0.64 1.74,-0.427 3.169,-1.003 4.285,-1.725 l -2.019,-3.744 c -2.135,1.38 -4.648,2.069 -7.538,2.069 -2.003,0 -3.53,-0.328 -4.581,-0.985 -1.052,-0.657 -1.576,-1.527 -1.576,-2.611 0,-0.854 0.295,-1.527 0.886,-2.02 0.591,-0.492 1.322,-0.854 2.193,-1.084 0.868,-0.23 2.093,-0.492 3.669,-0.788 2.102,-0.362 3.801,-0.747 5.099,-1.158 1.297,-0.411 2.406,-1.108 3.325,-2.093 0.92,-0.986 1.38,-2.365 1.38,-4.138 0,-2.365 -1.01,-4.246 -3.029,-5.641 C 12.389,-0.165 9.638,-0.862 6.158,-0.862 4.022,-0.862 1.971,-0.574 0,0"
         style="fill:#ffffff;fill-opacity:1;fill-rule:nonzero;stroke:none"
         id="path7756" />
    </g>
    <g
       id="g7758"
       transform="matrix(8.0797551,0,0,-8.0797551,1720.9096,235.9168)"
       style="fill:#ffffff">
      <path
         d="m 0,0 c -0.689,-0.591 -1.544,-1.043 -2.562,-1.355 -1.018,-0.312 -2.069,-0.468 -3.153,-0.468 -2.628,0 -4.664,0.706 -6.108,2.118 -1.447,1.412 -2.168,3.432 -2.168,6.06 v 14.336 h -4.434 v 3.892 h 4.434 v 5.715 h 4.729 v -5.715 h 7.489 V 20.691 H -9.262 V 6.552 c 0,-1.412 0.353,-2.496 1.059,-3.251 0.706,-0.756 1.716,-1.134 3.03,-1.134 1.444,0 2.677,0.411 3.694,1.232 z"
         style="fill:#ffffff;fill-opacity:1;fill-rule:nonzero;stroke:none"
         id="path7760" />
    </g>
    <g
       id="g7762"
       transform="matrix(8.0797551,0,0,-8.0797551,1862.2181,211.43757)"
       style="fill:#ffffff">
      <path
         d="m 0,0 c 1.312,0.804 2.266,1.946 2.857,3.424 v 3.645 h -7.292 c -4.006,0 -6.009,-1.347 -6.009,-4.039 0,-1.314 0.508,-2.349 1.527,-3.104 1.018,-0.756 2.43,-1.133 4.236,-1.133 1.806,0 3.367,0.402 4.681,1.207 M 4.704,19.139 C 6.626,17.366 7.586,14.722 7.586,11.208 V -4.557 H 3.104 v 3.449 c -0.789,-1.216 -1.915,-2.143 -3.375,-2.784 -1.462,-0.641 -3.195,-0.961 -5.198,-0.961 -2.924,0 -5.263,0.706 -7.02,2.119 -1.757,1.411 -2.636,3.267 -2.636,5.567 0,2.298 0.838,4.146 2.513,5.542 1.674,1.396 4.335,2.094 7.981,2.094 h 7.488 v 0.936 c 0,2.035 -0.591,3.596 -1.774,4.68 -1.182,1.083 -2.923,1.625 -5.222,1.625 -1.544,0 -3.054,-0.254 -4.532,-0.763 -1.477,-0.51 -2.726,-1.191 -3.744,-2.045 l -1.971,3.548 c 1.347,1.083 2.956,1.912 4.828,2.487 1.872,0.575 3.859,0.862 5.961,0.862 3.613,0 6.38,-0.886 8.301,-2.66"
         style="fill:#ffffff;fill-opacity:1;fill-rule:nonzero;stroke:none"
         id="path7764" />
    </g>
    <g
       id="g7766"
       transform="matrix(8.0797551,0,0,-8.0797551,2102.2361,235.9168)"
       style="fill:#ffffff">
      <path
         d="m 0,0 c -0.689,-0.591 -1.544,-1.043 -2.562,-1.355 -1.018,-0.312 -2.069,-0.468 -3.153,-0.468 -2.628,0 -4.664,0.706 -6.108,2.118 -1.447,1.412 -2.168,3.432 -2.168,6.06 v 14.336 h -4.434 v 3.892 h 4.434 v 5.715 h 4.729 v -5.715 h 7.489 V 20.691 H -9.262 V 6.552 c 0,-1.412 0.353,-2.496 1.059,-3.251 0.706,-0.756 1.716,-1.134 3.03,-1.134 1.444,0 2.677,0.411 3.694,1.232 z"
         style="fill:#ffffff;fill-opacity:1;fill-rule:nonzero;stroke:none"
         id="path7768" />
    </g>
    <path
       d="M 356.37228,-44.439387 H 23.52677 V 288.40612 H 356.37228 Z M 334.55694,266.59887 H 45.342109 V -22.615968 H 334.55694 Z"
       style="fill:#ffffff;fill-opacity:1;fill-rule:nonzero;stroke:none;stroke-width:8.07975"
       id="path7770" />
    <g
       id="g7772"
       transform="matrix(8.0797551,0,0,-8.0797551,189.94549,9.1786762)"
       style="fill:#f9f9f9">
      <path
         id="path7774"
         style="fill:#f9f9f9;fill-opacity:0;fill-rule:nonzero;stroke:none;stroke-width:8.07975"
         d="m 166.41797,110.17578 c -0.48542,0 -0.96871,0.007 -1.45117,0.0195 -0.48247,0.0122 -0.96399,0.0304 -1.44336,0.0547 -0.47937,0.0243 -0.95747,0.0536 -1.4336,0.0898 -0.47612,0.0362 -0.94914,0.079 -1.42187,0.12696 -0.47274,0.048 -0.94487,0.10246 -1.41406,0.16211 -0.4692,0.0596 -0.93684,0.12418 -1.40235,0.19531 -0.46551,0.0711 -0.92894,0.148 -1.39062,0.23047 -0.46168,0.0825 -0.92121,0.17001 -1.37891,0.26367 -0.4577,0.0937 -0.91361,0.19412 -1.36719,0.29883 -0.45357,0.10471 -0.90421,0.21447 -1.35351,0.33008 -0.4493,0.1156 -0.89692,0.23692 -1.3418,0.36328 -0.44488,0.12635 -0.88781,0.25757 -1.32812,0.39453 -0.44031,0.13696 -0.87691,0.28032 -1.3125,0.42773 -0.4356,0.14742 -0.87005,0.29931 -1.30079,0.45703 -0.43073,0.15773 -0.85748,0.3204 -1.2832,0.48828 -0.42572,0.16789 -0.84896,0.34164 -1.26953,0.51954 -0.42056,0.17789 -0.83864,0.35911 -1.25391,0.54687 -0.41526,0.18776 -0.82847,0.38064 -1.23828,0.57813 -0.40981,0.19748 -0.81649,0.40036 -1.2207,0.60742 -0.40421,0.20705 -0.80661,0.41829 -1.20508,0.63476 -0.39847,0.21648 -0.79297,0.43831 -1.18554,0.66407 -0.39258,0.22575 -0.78339,0.45652 -1.16993,0.6914 -0.38653,0.23489 -0.77004,0.47293 -1.15039,0.7168 -0.38035,0.24387 -0.75684,0.49339 -1.13086,0.74609 -0.37401,0.2527 -0.74575,0.5101 -1.11328,0.77149 -0.36753,0.26139 -0.73089,0.52694 -1.0918,0.79687 -0.3609,0.26993 -0.71813,0.54395 -1.07226,0.82227 -0.35413,0.27832 -0.70553,0.56109 -1.05274,0.84765 -0.3472,0.28657 -0.69111,0.57643 -1.03124,0.8711 -0.34014,0.29466 -0.67685,0.59387 -1.00977,0.89648 -0.33292,0.30262 -0.66077,0.6095 -0.98633,0.91992 -0.32556,0.31043 -0.64875,0.62333 -0.9668,0.94141 -0.31804,0.31808 -0.63101,0.64121 -0.9414,0.9668 -0.31039,0.32558 -0.61734,0.65338 -0.91992,0.98633 -0.30259,0.33294 -0.60186,0.6696 -0.89649,1.00976 -0.29463,0.34016 -0.58456,0.68402 -0.87109,1.03125 -0.28653,0.34723 -0.56937,0.69859 -0.84766,1.05274 -0.27828,0.35414 -0.55237,0.71134 -0.82226,1.07226 -0.26989,0.36092 -0.53553,0.7262 -0.79688,1.09375 -0.26135,0.36755 -0.51882,0.73731 -0.77148,1.11133 -0.25266,0.37402 -0.50032,0.75246 -0.74414,1.13281 -0.24383,0.38036 -0.48391,0.76386 -0.71875,1.15039 -0.23485,0.38654 -0.46374,0.7754 -0.68946,1.16797 -0.22571,0.39257 -0.44762,0.78904 -0.66406,1.1875 -0.21644,0.39846 -0.42775,0.79892 -0.63477,1.20313 -0.20701,0.4042 -0.40998,0.8109 -0.60742,1.2207 -0.19744,0.4098 -0.3904,0.82304 -0.57812,1.23828 -0.18772,0.41524 -0.36902,0.83337 -0.54688,1.25391 -0.17785,0.42054 -0.35168,0.84383 -0.51953,1.26953 -0.16784,0.42569 -0.33059,0.8525 -0.48828,1.2832 -0.15768,0.4307 -0.30965,0.86523 -0.45703,1.30078 -0.14738,0.43556 -0.29081,0.87224 -0.42774,1.3125 -0.13692,0.44027 -0.2682,0.8833 -0.39453,1.32813 -0.12632,0.44482 -0.2477,0.89255 -0.36328,1.34179 -0.11557,0.44925 -0.2254,0.90001 -0.33008,1.35352 -0.10468,0.45351 -0.20323,0.90956 -0.29687,1.36719 -0.0936,0.45763 -0.18122,0.9173 -0.26367,1.3789 -0.0824,0.46161 -0.15936,0.9252 -0.23047,1.39063 -0.0711,0.46543 -0.13764,0.93323 -0.19727,1.40234 -0.0596,0.46911 -0.11216,0.93947 -0.16015,1.41211 -0.048,0.47264 -0.0907,0.94585 -0.12696,1.42188 -0.0362,0.47602 -0.0675,0.95433 -0.0918,1.43359 -0.0243,0.47926 -0.0425,0.96101 -0.0547,1.44336 -0.0122,0.48235 -0.0176,0.96588 -0.0176,1.45117 0,0.48554 0.005,0.96858 0.0176,1.45117 0.0122,0.48259 0.0304,0.96387 0.0547,1.44336 0.0243,0.47949 0.0556,0.95736 0.0918,1.4336 0.0362,0.47624 0.079,0.95098 0.12696,1.42383 0.048,0.47284 0.10053,0.94475 0.16015,1.41406 0.0596,0.4693 0.12616,0.93673 0.19727,1.40234 0.0711,0.46562 0.14802,0.92885 0.23047,1.39063 0.0825,0.46178 0.17003,0.92111 0.26367,1.3789 0.0936,0.4578 0.19219,0.91352 0.29687,1.36719 0.10468,0.45367 0.21451,0.90608 0.33008,1.35547 0.11558,0.44939 0.23696,0.89683 0.36328,1.3418 0.12633,0.44496 0.25761,0.88773 0.39453,1.32812 0.13693,0.44039 0.28036,0.87878 0.42774,1.31445 0.14738,0.43568 0.29935,0.86802 0.45703,1.29883 0.15769,0.43081 0.32044,0.85936 0.48828,1.28516 0.16785,0.42579 0.34168,0.84889 0.51953,1.26953 0.17786,0.42064 0.35916,0.83858 0.54688,1.25391 0.18772,0.41533 0.38068,0.8284 0.57812,1.23828 0.19744,0.40987 0.40041,0.81643 0.60742,1.2207 0.20702,0.40427 0.41833,0.80655 0.63477,1.20508 0.21644,0.39852 0.43835,0.79291 0.66406,1.18555 0.22572,0.39263 0.45461,0.78333 0.68946,1.16992 0.23484,0.38659 0.47492,0.76999 0.71875,1.15039 0.24382,0.3804 0.49148,0.75679 0.74414,1.13086 0.25266,0.37406 0.51013,0.7457 0.77148,1.11328 0.26135,0.36758 0.52699,0.73085 0.79688,1.09179 0.26989,0.36095 0.54398,0.72005 0.82226,1.07422 0.27829,0.35418 0.56113,0.70354 0.84766,1.05078 0.28653,0.34725 0.57646,0.69108 0.87109,1.03126 0.29463,0.34017 0.5939,0.6768 0.89649,1.00976 0.30258,0.33296 0.60953,0.66269 0.91992,0.98828 0.31039,0.32559 0.62336,0.64677 0.9414,0.96485 0.31805,0.31807 0.64124,0.63294 0.9668,0.94335 0.32556,0.31042 0.65341,0.61732 0.98633,0.91993 0.33292,0.30261 0.66963,0.60183 1.00977,0.89648 0.34013,0.29466 0.68404,0.58454 1.03124,0.87109 0.34721,0.28656 0.69861,0.56936 1.05274,0.84766 0.35413,0.27831 0.71136,0.55236 1.07226,0.82227 0.36091,0.26991 0.72427,0.5355 1.0918,0.79687 0.36753,0.26137 0.73927,0.51881 1.11328,0.77149 0.37402,0.25267 0.75051,0.5003 1.13086,0.74414 0.38035,0.24384 0.76386,0.48389 1.15039,0.71875 0.38654,0.23485 0.77735,0.46568 1.16993,0.6914 0.39257,0.22573 0.78707,0.44566 1.18554,0.66211 0.39847,0.21645 0.80087,0.42775 1.20508,0.63477 0.40421,0.20702 0.81089,0.40997 1.2207,0.60742 0.40981,0.19745 0.82302,0.39039 1.23828,0.57812 0.41527,0.18774 0.83335,0.37097 1.25391,0.54883 0.42057,0.17787 0.84381,0.34973 1.26953,0.51758 0.42572,0.16785 0.85247,0.33059 1.2832,0.48828 0.43074,0.15769 0.86519,0.3116 1.30079,0.45899 0.43559,0.14738 0.87219,0.28885 1.3125,0.42578 0.44031,0.13693 0.88324,0.2682 1.32812,0.39453 0.44488,0.12633 0.8925,0.2477 1.3418,0.36328 0.4493,0.11558 0.89994,0.2254 1.35351,0.33008 0.45358,0.10468 0.90949,0.20323 1.36719,0.29687 0.4577,0.0936 0.91723,0.18318 1.37891,0.26563 0.46168,0.0824 0.92511,0.15936 1.39062,0.23047 0.46551,0.0711 0.93315,0.13568 1.40235,0.19531 0.46919,0.0596 0.94132,0.11411 1.41406,0.16211 0.47273,0.048 0.94575,0.0888 1.42187,0.125 0.47613,0.0362 0.95423,0.0675 1.4336,0.0918 0.47937,0.0243 0.96089,0.0425 1.44336,0.0547 0.48246,0.0122 0.96575,0.0176 1.45117,0.0176 0.48542,0 0.97065,-0.005 1.45312,-0.0176 0.48247,-0.0122 0.96203,-0.0304 1.44141,-0.0547 0.47938,-0.0243 0.95746,-0.0556 1.43359,-0.0918 0.47614,-0.0362 0.95108,-0.077 1.42383,-0.125 0.47275,-0.048 0.94485,-0.10248 1.41406,-0.16211 0.46922,-0.0596 0.93486,-0.1242 1.4004,-0.19531 0.46553,-0.0711 0.93087,-0.14802 1.39257,-0.23047 0.46171,-0.0824 0.92118,-0.17199 1.37891,-0.26563 0.45773,-0.0936 0.91358,-0.19219 1.36719,-0.29687 0.4536,-0.10468 0.90418,-0.2145 1.35351,-0.33008 0.44933,-0.11558 0.89689,-0.23695 1.3418,-0.36328 0.44491,-0.12633 0.88778,-0.2576 1.32812,-0.39453 0.44035,-0.13693 0.87882,-0.2784 1.31446,-0.42578 0.43563,-0.14739 0.86805,-0.3013 1.29883,-0.45899 0.43077,-0.15769 0.85938,-0.32043 1.28515,-0.48828 0.42577,-0.16785 0.84892,-0.33971 1.26953,-0.51758 0.42062,-0.17786 0.8386,-0.36109 1.25391,-0.54883 0.41531,-0.18773 0.82842,-0.38067 1.23828,-0.57812 0.40986,-0.19745 0.81644,-0.4004 1.2207,-0.60742 0.40427,-0.20702 0.80461,-0.41832 1.20313,-0.63477 0.39852,-0.21645 0.79487,-0.43638 1.1875,-0.66211 0.39263,-0.22572 0.78333,-0.45655 1.16992,-0.6914 0.38659,-0.23486 0.76999,-0.47491 1.15039,-0.71875 0.38041,-0.24384 0.75679,-0.49147 1.13086,-0.74414 0.37407,-0.25268 0.74569,-0.51012 1.11328,-0.77149 0.3676,-0.26137 0.73083,-0.52696 1.0918,-0.79687 0.36096,-0.26991 0.72003,-0.54396 1.07422,-0.82227 0.35419,-0.2783 0.70351,-0.5611 1.05078,-0.84766 0.34727,-0.28655 0.69105,-0.57643 1.03125,-0.87109 0.3402,-0.29465 0.67678,-0.59387 1.00976,-0.89648 0.33299,-0.30261 0.66267,-0.60951 0.98829,-0.91993 0.32562,-0.31041 0.64868,-0.62528 0.96679,-0.94335 0.31811,-0.31808 0.63096,-0.63926 0.94141,-0.96485 0.31045,-0.32559 0.61728,-0.65532 0.91992,-0.98828 0.30265,-0.33296 0.60179,-0.66959 0.89648,-1.00976 0.2947,-0.34018 0.58451,-0.68401 0.8711,-1.03126 0.28659,-0.34724 0.56931,-0.6966 0.84766,-1.05078 0.27834,-0.35417 0.55231,-0.71327 0.82226,-1.07422 0.26995,-0.36094 0.53547,-0.72421 0.79688,-1.09179 0.2614,-0.36758 0.51876,-0.73922 0.77148,-1.11328 0.25272,-0.37407 0.50221,-0.75046 0.74609,-1.13086 0.24389,-0.3804 0.4819,-0.7638 0.7168,-1.15039 0.2349,-0.38659 0.46564,-0.77729 0.69141,-1.16992 0.22577,-0.39264 0.44757,-0.78703 0.66406,-1.18555 0.21649,-0.39853 0.4277,-0.80081 0.63476,-1.20508 0.20707,-0.40427 0.40994,-0.81083 0.60743,-1.2207 0.19749,-0.40988 0.39035,-0.82295 0.57812,-1.23828 0.18777,-0.41533 0.37093,-0.83327 0.54883,-1.25391 0.1779,-0.42064 0.34969,-0.84374 0.51758,-1.26953 0.16789,-0.4258 0.33055,-0.85435 0.48828,-1.28516 0.15773,-0.43081 0.31156,-0.86315 0.45898,-1.29883 0.14742,-0.43567 0.28882,-0.87406 0.42578,-1.31445 0.13697,-0.44039 0.26818,-0.88316 0.39454,-1.32812 0.12636,-0.44497 0.24767,-0.89241 0.36328,-1.3418 0.11561,-0.44939 0.22732,-0.9018 0.33203,-1.35547 0.10471,-0.45367 0.20321,-0.90939 0.29687,-1.36719 0.0937,-0.45779 0.1812,-0.91712 0.26368,-1.3789 0.0825,-0.46178 0.15933,-0.92501 0.23046,-1.39063 -72.03635,-13.76955 -66.20282,8.25246 0.35743,-2.8164 0.048,-0.47285 0.0907,-0.94759 0.12695,-1.42383 0.0362,-0.47624 0.0675,-0.95411 0.0918,-1.4336 0.0243,-0.47949 0.0425,-0.96077 0.0547,-1.44336 0.0122,-0.48259 0.0176,-0.96563 0.0176,-1.45117 0,-0.48529 -0.005,-0.96882 -0.0176,-1.45117 -0.0122,-0.48235 -0.0304,-0.9641 -0.0547,-1.44336 -0.0243,-0.47926 -0.0556,-0.95757 -0.0918,-1.43359 -0.0362,-0.47603 -0.0789,-0.94924 -0.12695,-1.42188 -0.048,-0.47264 -0.10052,-0.943 -0.16016,-1.41211 -0.0596,-0.46911 -0.12613,-0.93691 -0.19727,-1.40234 -0.0711,-0.46543 -0.14799,-0.92902 -0.23046,-1.39063 -0.0825,-0.4616 -0.17001,-0.92127 -0.26368,-1.3789 -0.0937,-0.45763 -0.19216,-0.91368 -0.29687,-1.36719 -0.10471,-0.45351 -0.21642,-0.90427 -0.33203,-1.35352 -0.11561,-0.44924 -0.23692,-0.89697 -0.36328,-1.34179 -0.12636,-0.44483 -0.25757,-0.88786 -0.39454,-1.32813 -0.13696,-0.44026 -0.27836,-0.87694 -0.42578,-1.3125 -0.14742,-0.43555 -0.30125,-0.87008 -0.45898,-1.30078 -0.15773,-0.4307 -0.32039,-0.85751 -0.48828,-1.2832 -0.16789,-0.4257 -0.33968,-0.84899 -0.51758,-1.26953 -0.1779,-0.42054 -0.36106,-0.83867 -0.54883,-1.25391 -0.18777,-0.41524 -0.38063,-0.82848 -0.57812,-1.23828 -0.19749,-0.4098 -0.40036,-0.8165 -0.60743,-1.2207 -0.20706,-0.40421 -0.41827,-0.80467 -0.63476,-1.20313 -0.21649,-0.39846 -0.43829,-0.79493 -0.66406,-1.1875 -0.22577,-0.39257 -0.45651,-0.78143 -0.69141,-1.16797 -0.2349,-0.38653 -0.47291,-0.77003 -0.7168,-1.15039 -0.24388,-0.38035 -0.49337,-0.75879 -0.74609,-1.13281 -0.25272,-0.37402 -0.51008,-0.74378 -0.77148,-1.11133 -0.26141,-0.36755 -0.52693,-0.73283 -0.79688,-1.09375 -0.26995,-0.36092 -0.54392,-0.71812 -0.82226,-1.07226 -0.27835,-0.35415 -0.56107,-0.70551 -0.84766,-1.05274 -0.28659,-0.34723 -0.5764,-0.69109 -0.8711,-1.03125 -0.29469,-0.34016 -0.59383,-0.67682 -0.89648,-1.00976 -0.30264,-0.33295 -0.60947,-0.66075 -0.91992,-0.98633 -0.31045,-0.32559 -0.6233,-0.64872 -0.94141,-0.9668 -0.31811,-0.31808 -0.64117,-0.63098 -0.96679,-0.94141 -0.32562,-0.31042 -0.6553,-0.6173 -0.98829,-0.91992 -0.33298,-0.30261 -0.66956,-0.60182 -1.00976,-0.89648 -0.3402,-0.29467 -0.68398,-0.58453 -1.03125,-0.8711 -0.34727,-0.28656 -0.69659,-0.56933 -1.05078,-0.84765 -0.35419,-0.27832 -0.71326,-0.55234 -1.07422,-0.82227 -0.36097,-0.26993 -0.7242,-0.53548 -1.0918,-0.79687 -0.36759,-0.26139 -0.73921,-0.51879 -1.11328,-0.77149 -0.37407,-0.2527 -0.75045,-0.50222 -1.13086,-0.74609 -0.3804,-0.24387 -0.7638,-0.48191 -1.15039,-0.7168 -0.38659,-0.23488 -0.77729,-0.46565 -1.16992,-0.6914 -0.39263,-0.22576 -0.78898,-0.44759 -1.1875,-0.66407 -0.39852,-0.21647 -0.79886,-0.42771 -1.20313,-0.63476 -0.40426,-0.20706 -0.81084,-0.40994 -1.2207,-0.60742 -0.40986,-0.19749 -0.82297,-0.39037 -1.23828,-0.57813 -0.41531,-0.18776 -0.83329,-0.36898 -1.25391,-0.54687 -0.42061,-0.1779 -0.84376,-0.35165 -1.26953,-0.51954 -0.42577,-0.16788 -0.85438,-0.33055 -1.28515,-0.48828 -0.43078,-0.15772 -0.8632,-0.30961 -1.29883,-0.45703 -0.43564,-0.14741 -0.87411,-0.29077 -1.31446,-0.42773 -0.44034,-0.13696 -0.88321,-0.26818 -1.32812,-0.39453 -0.44491,-0.12636 -0.89247,-0.24768 -1.3418,-0.36328 -0.44933,-0.11561 -0.89991,-0.22537 -1.35351,-0.33008 -0.45361,-0.10471 -0.90946,-0.20517 -1.36719,-0.29883 -0.45773,-0.0937 -0.9172,-0.1812 -1.37891,-0.26367 -0.4617,-0.0825 -0.92704,-0.15934 -1.39257,-0.23047 -0.46554,-0.0711 -0.93118,-0.13567 -1.4004,-0.19531 -0.46921,-0.0597 -0.94131,-0.1141 -1.41406,-0.16211 -0.47275,-0.048 -0.94769,-0.0907 -1.42383,-0.12696 -0.47613,-0.0362 -0.95421,-0.0655 -1.43359,-0.0898 -0.47938,-0.0243 -0.95894,-0.0425 -1.44141,-0.0547 -0.48247,-0.0122 -0.9677,-0.0195 -1.45312,-0.0195 z"
         transform="matrix(0.12376613,0,0,-0.12376613,-20.597004,6.6361004)" />
      <path
         id="path11475"
         style="fill:#f9f9f9;fill-opacity:1;fill-rule:nonzero;stroke:none;stroke-width:8.07975"
         d="m 166.41797,53.617188 c -62.29491,0 -112.800783,50.507822 -112.800782,112.802732 0,62.30299 50.505872,112.8086 112.800782,112.8086 62.30299,0 112.81055,-50.50561 112.81055,-112.8086 0,-62.29491 -50.50756,-112.802732 -112.81055,-112.802732 z m 0,56.558592 c 0.48542,0 0.97065,0.007 1.45312,0.0195 0.48247,0.0122 0.96203,0.0304 1.44141,0.0547 0.47938,0.0243 0.95746,0.0536 1.43359,0.0898 0.47614,0.0362 0.95108,0.079 1.42383,0.12696 0.47275,0.048 0.94485,0.10246 1.41406,0.16211 0.46922,0.0596 0.93486,0.12418 1.4004,0.19531 0.46553,0.0711 0.93087,0.148 1.39257,0.23047 0.46171,0.0825 0.92118,0.17001 1.37891,0.26367 0.45773,0.0937 0.91358,0.19412 1.36719,0.29883 0.4536,0.10471 0.90418,0.21447 1.35351,0.33008 0.44933,0.1156 0.89689,0.23692 1.3418,0.36328 0.44491,0.12635 0.88778,0.25757 1.32812,0.39453 0.44035,0.13696 0.87882,0.28032 1.31446,0.42773 0.43563,0.14742 0.86805,0.29931 1.29883,0.45703 0.43077,0.15773 0.85938,0.3204 1.28515,0.48828 0.42577,0.16789 0.84892,0.34164 1.26953,0.51954 0.42062,0.17789 0.8386,0.35911 1.25391,0.54687 0.41531,0.18776 0.82842,0.38064 1.23828,0.57813 0.40986,0.19748 0.81644,0.40036 1.2207,0.60742 0.40427,0.20705 0.80461,0.41829 1.20313,0.63476 0.39852,0.21648 0.79487,0.43831 1.1875,0.66407 0.39263,0.22575 0.78333,0.45652 1.16992,0.6914 0.38659,0.23489 0.76999,0.47293 1.15039,0.7168 0.38041,0.24387 0.75679,0.49339 1.13086,0.74609 0.37407,0.2527 0.74569,0.5101 1.11328,0.77149 0.3676,0.26139 0.73083,0.52694 1.0918,0.79687 0.36096,0.26993 0.72003,0.54395 1.07422,0.82227 0.35419,0.27832 0.70351,0.56109 1.05078,0.84765 0.34727,0.28657 0.69105,0.57643 1.03125,0.8711 0.3402,0.29466 0.67678,0.59387 1.00976,0.89648 0.33299,0.30262 0.66267,0.6095 0.98829,0.91992 0.32562,0.31043 0.64868,0.62333 0.96679,0.94141 0.31811,0.31808 0.63096,0.64121 0.94141,0.9668 0.31045,0.32558 0.61728,0.65338 0.91992,0.98633 0.30265,0.33294 0.60179,0.6696 0.89648,1.00976 0.2947,0.34016 0.58451,0.68402 0.8711,1.03125 0.28659,0.34723 0.56931,0.69859 0.84766,1.05274 0.27834,0.35414 0.55231,0.71134 0.82226,1.07226 0.26995,0.36092 0.53547,0.7262 0.79688,1.09375 0.2614,0.36755 0.51876,0.73731 0.77148,1.11133 0.25272,0.37402 0.50221,0.75246 0.74609,1.13281 0.24389,0.38036 0.4819,0.76386 0.7168,1.15039 0.2349,0.38654 0.46564,0.7754 0.69141,1.16797 0.22577,0.39257 0.44757,0.78904 0.66406,1.1875 0.21649,0.39846 0.4277,0.79892 0.63476,1.20313 0.20707,0.4042 0.40994,0.8109 0.60743,1.2207 0.19749,0.4098 0.39035,0.82304 0.57812,1.23828 0.18777,0.41524 0.37093,0.83337 0.54883,1.25391 0.1779,0.42054 0.34969,0.84383 0.51758,1.26953 0.16789,0.42569 0.33055,0.8525 0.48828,1.2832 0.15773,0.4307 0.31156,0.86523 0.45898,1.30078 0.14742,0.43556 0.28882,0.87224 0.42578,1.3125 0.13697,0.44027 0.26818,0.8833 0.39454,1.32813 0.12636,0.44482 0.24767,0.89255 0.36328,1.34179 0.11561,0.44925 0.22732,0.90001 0.33203,1.35352 0.10471,0.45351 0.20321,0.90956 0.29687,1.36719 0.0937,0.45763 0.1812,0.9173 0.26368,1.3789 0.0825,0.46161 0.15933,0.9252 0.23046,1.39063 0.0711,0.46543 0.13763,0.93323 0.19727,1.40234 0.0596,0.46911 0.11215,0.93947 0.16016,1.41211 0.048,0.47264 0.0907,0.94585 0.12695,1.42188 0.0362,0.47602 0.0675,0.95433 0.0918,1.43359 0.0243,0.47926 0.0425,0.96101 0.0547,1.44336 0.0122,0.48235 0.0176,0.96588 0.0176,1.45117 0,0.48554 -0.005,0.96858 -0.0176,1.45117 -0.0122,0.48259 -0.0304,0.96387 -0.0547,1.44336 -0.0243,0.47949 -0.0556,0.95736 -0.0918,1.4336 -0.0362,0.47624 -0.0789,0.95098 -0.12695,1.42383 -0.048,0.47284 -0.10052,0.94475 -0.16016,1.41406 -0.0596,0.4693 -0.12613,0.93673 -0.19727,1.40234 -0.0711,0.46562 -0.14799,0.92885 -0.23046,1.39063 -0.0825,0.46178 -0.17001,0.92111 -0.26368,1.3789 -0.0937,0.4578 -0.19216,0.91352 -0.29687,1.36719 -0.10471,0.45367 -0.21642,0.90608 -0.33203,1.35547 -0.11561,0.44939 -0.23692,0.89683 -0.36328,1.3418 -0.12636,0.44496 -0.25757,0.88773 -0.39454,1.32812 -0.13696,0.44039 -0.27836,0.87878 -0.42578,1.31445 -0.14742,0.43568 -0.30125,0.86802 -0.45898,1.29883 -0.15773,0.43081 -0.32039,0.85936 -0.48828,1.28516 -0.16789,0.42579 -0.33968,0.84889 -0.51758,1.26953 -0.1779,0.42064 -0.36106,0.83858 -0.54883,1.25391 -0.18777,0.41533 -0.38063,0.8284 -0.57812,1.23828 -0.19749,0.40987 -0.40036,0.81643 -0.60743,1.2207 -0.20706,0.40427 -0.41827,0.80655 -0.63476,1.20508 -0.21649,0.39852 -0.43829,0.79291 -0.66406,1.18555 -0.22577,0.39263 -0.45651,0.78333 -0.69141,1.16992 -0.2349,0.38659 -0.47291,0.76999 -0.7168,1.15039 -0.24388,0.3804 -0.49337,0.75679 -0.74609,1.13086 -0.25272,0.37406 -0.51008,0.7457 -0.77148,1.11328 -0.26141,0.36758 -0.52693,0.73085 -0.79688,1.09179 -0.26995,0.36095 -0.54392,0.72005 -0.82226,1.07422 -0.27835,0.35418 -0.56107,0.70354 -0.84766,1.05078 -0.28659,0.34725 -0.5764,0.69108 -0.8711,1.03126 -0.29469,0.34017 -0.59383,0.6768 -0.89648,1.00976 -0.30264,0.33296 -0.60947,0.66269 -0.91992,0.98828 -0.31045,0.32559 -0.6233,0.64677 -0.94141,0.96485 -0.31811,0.31807 -0.64117,0.63294 -0.96679,0.94335 -0.32562,0.31042 -0.6553,0.61732 -0.98829,0.91993 -0.33298,0.30261 -0.66956,0.60183 -1.00976,0.89648 -0.3402,0.29466 -0.68398,0.58454 -1.03125,0.87109 -0.34727,0.28656 -0.69659,0.56936 -1.05078,0.84766 -0.35419,0.27831 -0.71326,0.55236 -1.07422,0.82227 -0.36097,0.26991 -0.7242,0.5355 -1.0918,0.79687 -0.36759,0.26137 -0.73921,0.51881 -1.11328,0.77149 -0.37407,0.25267 -0.75045,0.5003 -1.13086,0.74414 -0.3804,0.24384 -0.7638,0.48389 -1.15039,0.71875 -0.38659,0.23485 -0.77729,0.46568 -1.16992,0.6914 -0.39263,0.22573 -0.78898,0.44566 -1.1875,0.66211 -0.39852,0.21645 -0.79886,0.42775 -1.20313,0.63477 -0.40426,0.20702 -0.81084,0.40997 -1.2207,0.60742 -0.40986,0.19745 -0.82297,0.39039 -1.23828,0.57812 -0.41531,0.18774 -0.83329,0.37097 -1.25391,0.54883 -0.42061,0.17787 -0.84376,0.34973 -1.26953,0.51758 -0.42577,0.16785 -0.85438,0.33059 -1.28515,0.48828 -0.43078,0.15769 -0.8632,0.3116 -1.29883,0.45899 -0.43564,0.14738 -0.87411,0.28885 -1.31446,0.42578 -0.44034,0.13693 -0.88321,0.2682 -1.32812,0.39453 -0.44491,0.12633 -0.89247,0.2477 -1.3418,0.36328 -0.44933,0.11558 -0.89991,0.2254 -1.35351,0.33008 -0.45361,0.10468 -0.90946,0.20323 -1.36719,0.29687 -0.45773,0.0936 -0.9172,0.18318 -1.37891,0.26563 -0.4617,0.0824 -0.92704,0.15936 -1.39257,0.23047 -0.46554,0.0711 -0.93118,0.13568 -1.4004,0.19531 -0.46921,0.0596 -0.94131,0.11411 -1.41406,0.16211 -0.47275,0.048 -0.94769,0.0888 -1.42383,0.125 -0.47613,0.0362 -0.95421,0.0675 -1.43359,0.0918 -0.47938,0.0243 -0.95894,0.0425 -1.44141,0.0547 -0.48247,0.0122 -0.9677,0.0176 -1.45312,0.0176 -0.48542,0 -0.96871,-0.005 -1.45117,-0.0176 -0.48247,-0.0122 -0.96399,-0.0304 -1.44336,-0.0547 -0.47937,-0.0243 -0.95747,-0.0556 -1.4336,-0.0918 -0.47612,-0.0362 -0.94914,-0.077 -1.42187,-0.125 -0.47274,-0.048 -0.94487,-0.10248 -1.41406,-0.16211 -0.4692,-0.0596 -0.93684,-0.1242 -1.40235,-0.19531 -0.46551,-0.0711 -0.92894,-0.14802 -1.39062,-0.23047 -0.46168,-0.0824 -0.92121,-0.17199 -1.37891,-0.26563 -0.4577,-0.0936 -0.91361,-0.19219 -1.36719,-0.29687 -0.45357,-0.10468 -0.90421,-0.2145 -1.35351,-0.33008 -0.4493,-0.11558 -0.89692,-0.23695 -1.3418,-0.36328 -0.44488,-0.12633 -0.88781,-0.2576 -1.32812,-0.39453 -0.44031,-0.13693 -0.87691,-0.2784 -1.3125,-0.42578 -0.4356,-0.14739 -0.87005,-0.3013 -1.30079,-0.45899 -0.43073,-0.15769 -0.85748,-0.32043 -1.2832,-0.48828 -0.42572,-0.16785 -0.84896,-0.33971 -1.26953,-0.51758 -0.42056,-0.17786 -0.83864,-0.36109 -1.25391,-0.54883 -0.41526,-0.18773 -0.82847,-0.38067 -1.23828,-0.57812 -0.40981,-0.19745 -0.81649,-0.4004 -1.2207,-0.60742 -0.40421,-0.20702 -0.80661,-0.41832 -1.20508,-0.63477 -0.39847,-0.21645 -0.79297,-0.43638 -1.18554,-0.66211 -0.39258,-0.22572 -0.78339,-0.45655 -1.16993,-0.6914 -0.38653,-0.23486 -0.77004,-0.47491 -1.15039,-0.71875 -0.38035,-0.24384 -0.75684,-0.49147 -1.13086,-0.74414 -0.37401,-0.25268 -0.74575,-0.51012 -1.11328,-0.77149 -0.36753,-0.26137 -0.73089,-0.52696 -1.0918,-0.79687 -0.3609,-0.26991 -0.71813,-0.54396 -1.07226,-0.82227 -0.35413,-0.2783 -0.70553,-0.5611 -1.05274,-0.84766 -0.3472,-0.28655 -0.69111,-0.57643 -1.03124,-0.87109 -0.34014,-0.29465 -0.67685,-0.59387 -1.00977,-0.89648 -0.33292,-0.30261 -0.66077,-0.60951 -0.98633,-0.91993 -0.32556,-0.31041 -0.64875,-0.62528 -0.9668,-0.94335 -0.31804,-0.31808 -0.63101,-0.63926 -0.9414,-0.96485 -0.31039,-0.32559 -0.61734,-0.65532 -0.91992,-0.98828 -0.30259,-0.33296 -0.60186,-0.66959 -0.89649,-1.00976 -0.29463,-0.34018 -0.58456,-0.68401 -0.87109,-1.03126 -0.28653,-0.34724 -0.56937,-0.6966 -0.84766,-1.05078 -0.27828,-0.35417 -0.55237,-0.71327 -0.82226,-1.07422 -0.26989,-0.36094 -0.53553,-0.72421 -0.79688,-1.09179 -0.26135,-0.36758 -0.51882,-0.73922 -0.77148,-1.11328 -0.25266,-0.37407 -0.50032,-0.75046 -0.74414,-1.13086 -0.24383,-0.3804 -0.48391,-0.7638 -0.71875,-1.15039 -0.23485,-0.38659 -0.46374,-0.77729 -0.68946,-1.16992 -0.22571,-0.39264 -0.44762,-0.78703 -0.66406,-1.18555 -0.21644,-0.39853 -0.42775,-0.80081 -0.63477,-1.20508 -0.20701,-0.40427 -0.40998,-0.81083 -0.60742,-1.2207 -0.19744,-0.40988 -0.3904,-0.82295 -0.57812,-1.23828 -0.18772,-0.41533 -0.36902,-0.83327 -0.54688,-1.25391 -0.17785,-0.42064 -0.35168,-0.84374 -0.51953,-1.26953 -0.16784,-0.4258 -0.33059,-0.85435 -0.48828,-1.28516 -0.15768,-0.43081 -0.30965,-0.86315 -0.45703,-1.29883 -0.14738,-0.43567 -0.29081,-0.87406 -0.42774,-1.31445 -0.13692,-0.44039 -0.2682,-0.88316 -0.39453,-1.32812 -0.12632,-0.44497 -0.2477,-0.89241 -0.36328,-1.3418 -0.11557,-0.44939 -0.2254,-0.9018 -0.33008,-1.35547 -0.10468,-0.45367 -0.20323,-0.90939 -0.29687,-1.36719 -0.0936,-0.45779 -0.18122,-0.91712 -0.26367,-1.3789 -0.0824,-0.46178 -0.15936,-0.92501 -0.23047,-1.39063 -0.0711,-0.46561 -0.13764,-0.93304 -0.19727,-1.40234 -0.0596,-0.46931 -0.11216,-0.94122 -0.16015,-1.41406 -0.048,-0.47285 -0.0907,-0.94759 -0.12696,-1.42383 -0.0362,-0.47624 -0.0675,-0.95411 -0.0918,-1.4336 -0.0243,-0.47949 -0.0425,-0.96077 -0.0547,-1.44336 -0.0122,-0.48259 -0.0176,-0.96563 -0.0176,-1.45117 0,-0.48529 0.005,-0.96882 0.0176,-1.45117 0.0122,-0.48235 0.0304,-0.9641 0.0547,-1.44336 0.0243,-0.47926 0.0556,-0.95757 0.0918,-1.43359 0.0362,-0.47603 0.079,-0.94924 0.12696,-1.42188 0.048,-0.47264 0.10053,-0.943 0.16015,-1.41211 0.0596,-0.46911 0.12616,-0.93691 0.19727,-1.40234 0.0711,-0.46543 0.14802,-0.92902 0.23047,-1.39063 0.0825,-0.4616 0.17003,-0.92127 0.26367,-1.3789 0.0936,-0.45763 0.19219,-0.91368 0.29687,-1.36719 0.10468,-0.45351 0.21451,-0.90427 0.33008,-1.35352 0.11558,-0.44924 0.23696,-0.89697 0.36328,-1.34179 0.12633,-0.44483 0.25761,-0.88786 0.39453,-1.32813 0.13693,-0.44026 0.28036,-0.87694 0.42774,-1.3125 0.14738,-0.43555 0.29935,-0.87008 0.45703,-1.30078 0.15769,-0.4307 0.32044,-0.85751 0.48828,-1.2832 0.16785,-0.4257 0.34168,-0.84899 0.51953,-1.26953 0.17786,-0.42054 0.35916,-0.83867 0.54688,-1.25391 0.18772,-0.41524 0.38068,-0.82848 0.57812,-1.23828 0.19744,-0.4098 0.40041,-0.8165 0.60742,-1.2207 0.20702,-0.40421 0.41833,-0.80467 0.63477,-1.20313 0.21644,-0.39846 0.43835,-0.79493 0.66406,-1.1875 0.22572,-0.39257 0.45461,-0.78143 0.68946,-1.16797 0.23484,-0.38653 0.47492,-0.77003 0.71875,-1.15039 0.24382,-0.38035 0.49148,-0.75879 0.74414,-1.13281 0.25266,-0.37402 0.51013,-0.74378 0.77148,-1.11133 0.26135,-0.36755 0.52699,-0.73283 0.79688,-1.09375 0.26989,-0.36092 0.54398,-0.71812 0.82226,-1.07226 0.27829,-0.35415 0.56113,-0.70551 0.84766,-1.05274 0.28653,-0.34723 0.57646,-0.69109 0.87109,-1.03125 0.29463,-0.34016 0.5939,-0.67682 0.89649,-1.00976 0.30258,-0.33295 0.60953,-0.66075 0.91992,-0.98633 0.31039,-0.32559 0.62336,-0.64872 0.9414,-0.9668 0.31805,-0.31808 0.64124,-0.63098 0.9668,-0.94141 0.32556,-0.31042 0.65341,-0.6173 0.98633,-0.91992 0.33292,-0.30261 0.66963,-0.60182 1.00977,-0.89648 0.34013,-0.29467 0.68404,-0.58453 1.03124,-0.8711 0.34721,-0.28656 0.69861,-0.56933 1.05274,-0.84765 0.35413,-0.27832 0.71136,-0.55234 1.07226,-0.82227 0.36091,-0.26993 0.72427,-0.53548 1.0918,-0.79687 0.36753,-0.26139 0.73927,-0.51879 1.11328,-0.77149 0.37402,-0.2527 0.75051,-0.50222 1.13086,-0.74609 0.38035,-0.24387 0.76386,-0.48191 1.15039,-0.7168 0.38654,-0.23488 0.77735,-0.46565 1.16993,-0.6914 0.39257,-0.22576 0.78707,-0.44759 1.18554,-0.66407 0.39847,-0.21647 0.80087,-0.42771 1.20508,-0.63476 0.40421,-0.20706 0.81089,-0.40994 1.2207,-0.60742 0.40981,-0.19749 0.82302,-0.39037 1.23828,-0.57813 0.41527,-0.18776 0.83335,-0.36898 1.25391,-0.54687 0.42057,-0.1779 0.84381,-0.35165 1.26953,-0.51954 0.42572,-0.16788 0.85247,-0.33055 1.2832,-0.48828 0.43074,-0.15772 0.86519,-0.30961 1.30079,-0.45703 0.43559,-0.14741 0.87219,-0.29077 1.3125,-0.42773 0.44031,-0.13696 0.88324,-0.26818 1.32812,-0.39453 0.44488,-0.12636 0.8925,-0.24768 1.3418,-0.36328 0.4493,-0.11561 0.89994,-0.22537 1.35351,-0.33008 0.45358,-0.10471 0.90949,-0.20517 1.36719,-0.29883 0.4577,-0.0937 0.91723,-0.1812 1.37891,-0.26367 0.46168,-0.0825 0.92511,-0.15934 1.39062,-0.23047 0.46551,-0.0711 0.93315,-0.13567 1.40235,-0.19531 0.46919,-0.0597 0.94132,-0.1141 1.41406,-0.16211 0.47273,-0.048 0.94575,-0.0907 1.42187,-0.12696 0.47613,-0.0362 -21.27734,5.99024 1.4336,-0.0898 0.99324,-0.0542 1.97093,-0.0653 2.89453,-0.0742 z"
         transform="matrix(0.12376613,0,0,-0.12376613,-20.597004,6.6361004)" />
    </g>
    <g
       id="g7780"
       transform="matrix(8.0797551,0,0,-8.0797551,155.48593,101.07698)"
       style="fill:#ffffff">
      <path
         d="m 3.5454354,-0.12151438 c -0.184,-0.156 -0.276,-0.374 -0.276,-0.654 0,-0.27200002 0.09,-0.48600002 0.27,-0.64200002 0.18,-0.156 0.422,-0.234 0.726,-0.234 0.304,0 0.548,0.078 0.732,0.234 0.184,0.156 0.276,0.37 0.276,0.64200002 0,0.28 -0.092,0.498 -0.276,0.654 -0.184,0.156 -0.428,0.234 -0.732,0.234 -0.296,0 -0.536,-0.078 -0.72,-0.234 m 1.638,-4.88400002 c 0.228,0.188 0.342,0.442 0.342,0.762 0,0.32 -0.114,0.574 -0.342,0.762 -0.228,0.188 -0.534,0.282 -0.918,0.282 -0.384,0 -0.69,-0.094 -0.918,-0.282 -0.228,-0.188 -0.342,-0.442 -0.342,-0.762 0,-0.32 0.114,-0.574 0.342,-0.762 0.228,-0.188 0.534,-0.282 0.918,-0.282 0.384,0 0.69,0.094 0.918,0.282 m 2.418,1.818 c 0.208,-0.328 0.312,-0.704 0.312,-1.128 0,-0.528 -0.152,-0.992 -0.456,-1.392 -0.304,-0.4 -0.732,-0.708 -1.284,-0.924 -0.552,-0.216 -1.188,-0.324 -1.908,-0.324 -0.72,0 -1.356,0.108 -1.908,0.324 -0.552,0.216 -0.98,0.524 -1.284,0.924 -0.30400004,0.4 -0.45600004,0.864 -0.45600004,1.392 0,0.424 0.104,0.8 0.312,1.128 0.20800004,0.328 0.50400004,0.604 0.88800004,0.828 -0.288,0.2 -0.51,0.444 -0.666,0.732 -0.15600004,0.288 -0.23400004,0.608 -0.23400004,0.96000002 0,0.488 0.14000004,0.918 0.42000004,1.29 0.28,0.372 0.674,0.65799998 1.182,0.85799998 0.508,0.2 1.09,0.3 1.746,0.3 0.656,0 1.238,-0.1 1.746,-0.3 0.508,-0.2 0.902,-0.48599998 1.182,-0.85799998 0.28,-0.372 0.42,-0.802 0.42,-1.29 0,-0.35200002 -0.078,-0.67200002 -0.234,-0.96000002 -0.156,-0.288 -0.378,-0.532 -0.666,-0.732 0.384,-0.224 0.68,-0.5 0.888,-0.828"
         style="fill:#ffffff;fill-opacity:1;fill-rule:nonzero;stroke:none"
         id="path7782" />
    </g>
  </g>
</svg>
